HIERARCHY
ROOT Hips
{
	OFFSET 0.00000 0.00000 0.00000
	CHANNELS 6 Xposition Yposition Zposition Zrotation Yrotation Xrotation 
	JOINT LHipJoint
	{
		OFFSET 0 0 0
		CHANNELS 3 Zrotation Yrotation Xrotation
		JOINT LeftHip
		{
			OFFSET 1.58161 -1.81893 0.78828
			CHANNELS 3 Zrotation Yrotation Xrotation
			JOINT LeftKnee
			{
				OFFSET 2.53374 -6.96141 0.00000
				CHANNELS 3 Zrotation Yrotation Xrotation
				JOINT LeftAnkle
				{
					OFFSET 2.63509 -7.23986 0.00000
					CHANNELS 3 Zrotation Yrotation Xrotation
					JOINT LeftToe
					{
						OFFSET 0.14115 -0.38781 2.05350
						CHANNELS 3 Zrotation Yrotation Xrotation
						End Site
						{
							OFFSET 0.00000 -0.00000 1.05543
						}
					}
				}
			}
		}
	}
	JOINT RHipJoint
	{
		OFFSET 0 0 0
		CHANNELS 3 Zrotation Yrotation Xrotation
		JOINT RightHip
		{
			OFFSET -1.11138 -1.81893 0.78828
			CHANNELS 3 Zrotation Yrotation Xrotation
			JOINT RightKnee
			{
				OFFSET -2.58392 -7.09926 0.00000
				CHANNELS 3 Zrotation Yrotation Xrotation
				JOINT RightAnkle
				{
					OFFSET -2.66423 -7.31992 0.00000
					CHANNELS 3 Zrotation Yrotation Xrotation
					JOINT RightToe
					{
						OFFSET -0.18831 -0.51739 2.12114
						CHANNELS 3 Zrotation Yrotation Xrotation
						End Site
						{
							OFFSET -0.00000 -0.00000 1.09845
						}
					}
				}
			}
		}
	}
	JOINT lowerback
	{
		OFFSET 0 0 0
		CHANNELS 3 Zrotation Yrotation Xrotation
		JOINT Chest
		{
			OFFSET -0.01511 1.97958 -0.08829
			CHANNELS 3 Zrotation Yrotation Xrotation
			JOINT Chest2
			{
				OFFSET 0.08344 1.97334 -0.04330
				CHANNELS 3 Zrotation Yrotation Xrotation
				JOINT lowerneck
				{
					OFFSET 0 0 0
					CHANNELS 3 Zrotation Yrotation Xrotation
					JOINT Neck
					{
						OFFSET 0.00559 1.76246 0.31246
						CHANNELS 3 Zrotation Yrotation Xrotation
						JOINT Head
						{
							OFFSET -0.07011 1.80354 -0.30524
							CHANNELS 3 Zrotation Yrotation Xrotation
							End Site
							{
								OFFSET -0.02385 1.83547 -0.13906
							}
						}
					}
				}
				JOINT LeftCollar
				{
					OFFSET 0 0 0
					CHANNELS 3 Zrotation Yrotation Xrotation
					JOINT LeftShoulder
					{
						OFFSET 3.20667 1.30156 -0.60240
CHANNELS 3 Zrotation Xrotation Yrotation
						JOINT LeftElbow
						{
OFFSET 0 -4.956630 0.000000
CHANNELS 3 Zrotation Xrotation Yrotation
							JOINT LeftWrist
							{
OFFSET 0 -3.381770 0.000000
CHANNELS 3 Zrotation Xrotation Yrotation
								JOINT lhand
								{
									OFFSET 0 0 0
CHANNELS 3 Zrotation Xrotation Yrotation
									JOINT LFingers
									{
OFFSET 0 -0.662910 0.000000
CHANNELS 3 Zrotation Xrotation Yrotation
										End Site
										{
OFFSET 0 -0.534450 0.000000
										}
									}
								}
								JOINT LThumb
								{
OFFSET 0 0.000000 0.000000
CHANNELS 3 Zrotation Xrotation Yrotation
									End Site
									{
OFFSET 0 -0.542610 0.542610
									}
								}
							}
						}
					}
				}
				JOINT RightCollar
				{
					OFFSET 0 0 0
					CHANNELS 3 Zrotation Yrotation Xrotation
					JOINT RightShoulder
					{
						OFFSET -3.06877 1.34672 -0.60964
CHANNELS 3 Zrotation Xrotation Yrotation
						JOINT RightElbow
						{
OFFSET 0 -5.083650 0.000000
CHANNELS 3 Zrotation Xrotation Yrotation
							JOINT RightWrist
							{
OFFSET 0 -3.359840 0.000000
CHANNELS 3 Zrotation Xrotation Yrotation
								JOINT rhand
								{
									OFFSET 0 0 0
CHANNELS 3 Zrotation Xrotation Yrotation
									JOINT RFingers
									{
OFFSET 0 -0.820760 0.000000
CHANNELS 3 Zrotation Xrotation Yrotation
										End Site
										{
OFFSET 0 -0.661720 0.000000
										}
									}
								}
								JOINT RThumb
								{
OFFSET 0 0.000000 0.000000
CHANNELS 3 Zrotation Xrotation Yrotation
									End Site
									{
OFFSET 0 -0.671820 0.671820
									}
								}
							}
						}
					}
				}
			}
		}
	}
}
MOTION
Frames: 4
Frame Time: 0.008333333333333333
-11.112000 17.881100 4.709900 -26.912600 82.676900 -8.222000 0.000000 0.000000 0.000000 -6.684100 -5.629000 -33.461200 2.193700 9.258400 26.607200 0.209800 -4.794000 -8.306700 0.547900 -4.742200 -13.174700 0.000000 0.000000 0.000000 12.446200 8.879300 -34.571600 -2.701900 -10.196100 29.614200 -0.218700 -1.612600 -9.576600 -0.154500 2.533000 -6.981100 -2.214300 1.504700 4.841000 3.981700 2.047200 5.389500 5.324700 0.945800 2.637700 1.505100 -1.090600 -13.505000 -5.227800 2.216700 41.084000 -2.085300 1.009300 17.454000 -0.000000 -0.000000 0.000000 -9.396200 -22.573300 -79.176100 26.373600 -37.575300 9.114500 32.409300 -21.453100 -63.811300 0.000000 0.000000 0.000000 -7.125000 0.000000 0.000000 171.161900 7.650600 -7.677100 -0.000000 -0.000000 0.000000 3.856700 -17.761600 55.843200 -27.281900 -38.446700 -9.673900 -28.195700 -47.806900 6.907700 0.000000 0.000000 0.000000 7.125000 0.000000 -0.000000 -1.217000 37.804100 -0.215600
-11.111160 17.876733 4.710908 -26.959373 82.656327 -8.271040 0.000000 0.000000 0.000000 -6.756485 -5.498254 -33.533501 2.182532 9.236315 26.537334 0.210808 -4.559631 -8.286882 0.694685 -5.321700 -14.829814 0.000000 0.000000 0.000000 12.462827 8.876529 -34.626770 -2.719115 -10.225911 29.711357 -0.219624 -1.606218 -9.590708 -0.158615 2.566337 -7.073555 -2.245454 1.504196 4.837977 4.004121 2.045940 5.394790 5.366435 0.943785 2.643578 1.485954 -1.085981 -13.500297 -5.237121 2.234250 41.083328 -2.082865 1.012239 17.453664 0.000000 0.000000 0.000000 -9.394437 -22.601767 -79.203643 26.405342 -37.606202 9.133898 32.369833 -21.593587 -63.868654 0.000000 0.000000 0.000000 -7.125000 0.000000 0.000000 171.132006 7.694014 -7.696078 0.000000 0.000000 0.000000 3.892305 -17.786792 55.782235 -27.230424 -38.398079 -9.641906 -28.100642 -47.635762 6.913830 0.000000 0.000000 0.000000 7.125000 0.000000 0.000000 -1.135210 37.804436 -0.201157
-11.110253 17.873658 4.710964 -27.167859 82.628755 -8.462157 0.000000 0.000000 0.000000 -6.822755 -5.327555 -33.659548 2.182099 9.235429 26.534532 0.205904 -4.528014 -8.192731 0.809672 -5.738195 -16.027782 0.000000 0.000000 0.000000 12.489510 8.906576 -34.658160 -2.726681 -10.238870 29.753681 -0.220955 -1.620356 -9.625675 -0.152402 2.515557 -6.932681 -2.215456 1.517961 4.812328 4.018116 2.065201 5.399741 5.364412 0.953864 2.661347 1.475437 -1.104261 -13.491858 -5.241278 2.209470 41.070154 -2.086817 1.000026 17.442321 0.000000 0.000000 0.000000 -9.397565 -22.622352 -79.270052 26.439734 -37.639618 9.154858 32.586116 -21.519499 -63.887414 0.000000 0.000000 0.000000 -7.125000 0.000000 0.000000 171.180250 7.756182 -7.642285 0.000000 0.000000 0.000000 3.884627 -17.809674 55.757079 -27.211971 -38.380578 -9.630432 -28.124287 -47.553431 6.903109 0.000000 0.000000 0.000000 7.125000 0.000000 0.000000 -1.155883 37.793968 -0.205127
-11.109588 17.872185 4.709862 -27.179032 82.623415 -8.459948 0.000000 0.000000 0.000000 -6.869722 -5.249818 -33.727401 2.183731 9.238661 26.544848 0.201839 -4.582122 -8.127774 0.842652 -5.855190 -16.364826 0.000000 0.000000 0.000000 12.492501 8.878062 -34.693960 -2.731659 -10.247440 29.781722 -0.223784 -1.571111 -9.654243 -0.153409 2.523854 -6.955769 -2.167140 1.542049 4.801279 4.002503 2.098491 5.399627 5.319670 0.972247 2.665566 1.480871 -1.130485 -13.507355 -5.213740 2.157935 41.084560 -2.084798 0.984083 17.450759 0.000000 0.000000 0.000000 -9.383416 -22.619843 -79.355493 26.448168 -37.647823 9.159989 32.576178 -21.553362 -63.830665 0.000000 0.000000 0.000000 -7.125000 0.000000 0.000000 171.197860 7.702941 -7.635968 0.000000 0.000000 0.000000 3.868922 -17.818771 55.716485 -27.213196 -38.381736 -9.631223 -28.153813 -47.535140 6.897344 0.000000 0.000000 0.000000 7.125000 0.000000 0.000000 -1.181411 37.789519 -0.209754
